<svg xmlns:xlink="http://www.w3.org/1999/xlink" width="39.325ex" height="5.876ex" viewBox="0 -1494.6 16931.4 2529.9" role="img" focusable="false" xmlns="http://www.w3.org/2000/svg" style="vertical-align: -2.405ex;"><defs><path stroke-width="1" id="E7-MJMAIN-3D" d="M56 347Q56 360 70 367H707Q722 359 722 347Q722 336 708 328L390 327H72Q56 332 56 347ZM56 153Q56 168 72 173H708Q722 163 722 153Q722 140 707 133H70Q56 140 56 153Z"></path><path stroke-width="1" id="E7-MJMATHI-51" d="M399 -80Q399 -47 400 -30T402 -11V-7L387 -11Q341 -22 303 -22Q208 -22 138 35T51 201Q50 209 50 244Q50 346 98 438T227 601Q351 704 476 704Q514 704 524 703Q621 689 680 617T740 435Q740 255 592 107Q529 47 461 16L444 8V3Q444 2 449 -24T470 -66T516 -82Q551 -82 583 -60T625 -3Q631 11 638 11Q647 11 649 2Q649 -6 639 -34T611 -100T557 -165T481 -194Q399 -194 399 -87V-80ZM636 468Q636 523 621 564T580 625T530 655T477 665Q429 665 379 640Q277 591 215 464T153 216Q153 110 207 59Q231 38 236 38V46Q236 86 269 120T347 155Q372 155 390 144T417 114T429 82T435 55L448 64Q512 108 557 185T619 334T636 468ZM314 18Q362 18 404 39L403 49Q399 104 366 115Q354 117 347 117Q344 117 341 117T337 118Q317 118 296 98T274 52Q274 18 314 18Z"></path><path stroke-width="1" id="E7-MJMAIN-33" d="M127 463Q100 463 85 480T69 524Q69 579 117 622T233 665Q268 665 277 664Q351 652 390 611T430 522Q430 470 396 421T302 350L299 348Q299 347 308 345T337 336T375 315Q457 262 457 175Q457 96 395 37T238 -22Q158 -22 100 21T42 130Q42 158 60 175T105 193Q133 193 151 175T169 130Q169 119 166 110T159 94T148 82T136 74T126 70T118 67L114 66Q165 21 238 21Q293 21 321 74Q338 107 338 175V195Q338 290 274 322Q259 328 213 329L171 330L168 332Q166 335 166 348Q166 366 174 366Q202 366 232 371Q266 376 294 413T322 525V533Q322 590 287 612Q265 626 240 626Q208 626 181 615T143 592T132 580H135Q138 579 143 578T153 573T165 566T175 555T183 540T186 520Q186 498 172 481T127 463Z"></path><path stroke-width="1" id="E7-MJMAIN-2B" d="M56 237T56 250T70 270H369V420L370 570Q380 583 389 583Q402 583 409 568V270H707Q722 262 722 250T707 230H409V-68Q401 -82 391 -82H389H387Q375 -82 369 -68V230H70Q56 237 56 250Z"></path><path stroke-width="1" id="E7-MJMAIN-31" d="M213 578L200 573Q186 568 160 563T102 556H83V602H102Q149 604 189 617T245 641T273 663Q275 666 285 666Q294 666 302 660V361L303 61Q310 54 315 52T339 48T401 46H427V0H416Q395 3 257 3Q121 3 100 0H88V46H114Q136 46 152 46T177 47T193 50T201 52T207 57T213 61V578Z"></path><path stroke-width="1" id="E7-MJMAIN-2212" d="M84 237T84 250T98 270H679Q694 262 694 250T679 230H98Q84 237 84 250Z"></path><path stroke-width="1" id="E7-MJMAIN-32" d="M109 429Q82 429 66 447T50 491Q50 562 103 614T235 666Q326 666 387 610T449 465Q449 422 429 383T381 315T301 241Q265 210 201 149L142 93L218 92Q375 92 385 97Q392 99 409 186V189H449V186Q448 183 436 95T421 3V0H50V19V31Q50 38 56 46T86 81Q115 113 136 137Q145 147 170 174T204 211T233 244T261 278T284 308T305 340T320 369T333 401T340 431T343 464Q343 527 309 573T212 619Q179 619 154 602T119 569T109 550Q109 549 114 549Q132 549 151 535T170 489Q170 464 154 447T109 429Z"></path><path stroke-width="1" id="E7-MJMATHI-6D" d="M21 287Q22 293 24 303T36 341T56 388T88 425T132 442T175 435T205 417T221 395T229 376L231 369Q231 367 232 367L243 378Q303 442 384 442Q401 442 415 440T441 433T460 423T475 411T485 398T493 385T497 373T500 364T502 357L510 367Q573 442 659 442Q713 442 746 415T780 336Q780 285 742 178T704 50Q705 36 709 31T724 26Q752 26 776 56T815 138Q818 149 821 151T837 153Q857 153 857 145Q857 144 853 130Q845 101 831 73T785 17T716 -10Q669 -10 648 17T627 73Q627 92 663 193T700 345Q700 404 656 404H651Q565 404 506 303L499 291L466 157Q433 26 428 16Q415 -11 385 -11Q372 -11 364 -4T353 8T350 18Q350 29 384 161L420 307Q423 322 423 345Q423 404 379 404H374Q288 404 229 303L222 291L189 157Q156 26 151 16Q138 -11 108 -11Q95 -11 87 -5T76 7T74 17Q74 30 112 181Q151 335 151 342Q154 357 154 369Q154 405 129 405Q107 405 92 377T69 316T57 280Q55 278 41 278H27Q21 284 21 287Z"></path><path stroke-width="1" id="E7-MJMAIN-34" d="M462 0Q444 3 333 3Q217 3 199 0H190V46H221Q241 46 248 46T265 48T279 53T286 61Q287 63 287 115V165H28V211L179 442Q332 674 334 675Q336 677 355 677H373L379 671V211H471V165H379V114Q379 73 379 66T385 54Q393 47 442 46H471V0H462ZM293 211V545L74 212L183 211H293Z"></path><path stroke-width="1" id="E7-MJMAIN-D7" d="M630 29Q630 9 609 9Q604 9 587 25T493 118L389 222L284 117Q178 13 175 11Q171 9 168 9Q160 9 154 15T147 29Q147 36 161 51T255 146L359 250L255 354Q174 435 161 449T147 471Q147 480 153 485T168 490Q173 490 175 489Q178 487 284 383L389 278L493 382Q570 459 587 475T609 491Q630 491 630 471Q630 464 620 453T522 355L418 250L522 145Q606 61 618 48T630 29Z"></path><path stroke-width="1" id="E7-MJMAIN-30" d="M96 585Q152 666 249 666Q297 666 345 640T423 548Q460 465 460 320Q460 165 417 83Q397 41 362 16T301 -15T250 -22Q224 -22 198 -16T137 16T82 83Q39 165 39 320Q39 494 96 585ZM321 597Q291 629 250 629Q208 629 178 597Q153 571 145 525T137 333Q137 175 145 125T181 46Q209 16 250 16Q290 16 318 46Q347 76 354 130T362 333Q362 478 354 524T321 597Z"></path></defs><g stroke="currentColor" fill="currentColor" stroke-width="0" transform="matrix(1 0 0 -1 0 0)"><use xlink:href="#E7-MJMAIN-3D" x="0" y="0"></use><g transform="translate(778,0)"><g transform="translate(397,0)"><rect stroke="none" width="6435" height="60" x="0" y="220"></rect><g transform="translate(60,714)"><use xlink:href="#E7-MJMATHI-51" x="0" y="0"></use><use transform="scale(0.707)" xlink:href="#E7-MJMAIN-33" x="1119" y="-213"></use><use xlink:href="#E7-MJMAIN-2B" x="1467" y="0"></use><g transform="translate(2468,0)"><use xlink:href="#E7-MJMATHI-51" x="0" y="0"></use><use transform="scale(0.707)" xlink:href="#E7-MJMAIN-31" x="1119" y="-326"></use></g><use xlink:href="#E7-MJMAIN-2212" x="3935" y="0"></use><use xlink:href="#E7-MJMAIN-32" x="4936" y="0"></use><use xlink:href="#E7-MJMATHI-6D" x="5437" y="0"></use></g><g transform="translate(1360,-689)"><use xlink:href="#E7-MJMATHI-51" x="0" y="0"></use><use transform="scale(0.707)" xlink:href="#E7-MJMAIN-33" x="1119" y="-213"></use><use xlink:href="#E7-MJMAIN-2212" x="1467" y="0"></use><g transform="translate(2468,0)"><use xlink:href="#E7-MJMATHI-51" x="0" y="0"></use><use transform="scale(0.707)" xlink:href="#E7-MJMAIN-31" x="1119" y="-326"></use></g></g></g></g><use xlink:href="#E7-MJMAIN-3D" x="8009" y="0"></use><g transform="translate(8788,0)"><g transform="translate(397,0)"><rect stroke="none" width="5790" height="60" x="0" y="220"></rect><g transform="translate(60,676)"><use xlink:href="#E7-MJMAIN-34" x="0" y="0"></use><use xlink:href="#E7-MJMAIN-2B" x="722" y="0"></use><use xlink:href="#E7-MJMAIN-32" x="1723" y="0"></use><use xlink:href="#E7-MJMAIN-2212" x="2446" y="0"></use><use xlink:href="#E7-MJMAIN-32" x="3446" y="0"></use><use xlink:href="#E7-MJMAIN-D7" x="4169" y="0"></use><use xlink:href="#E7-MJMAIN-33" x="5170" y="0"></use></g><g transform="translate(1783,-686)"><use xlink:href="#E7-MJMAIN-34" x="0" y="0"></use><use xlink:href="#E7-MJMAIN-2212" x="722" y="0"></use><use xlink:href="#E7-MJMAIN-32" x="1723" y="0"></use></g></g></g><use xlink:href="#E7-MJMAIN-3D" x="15374" y="0"></use><use xlink:href="#E7-MJMAIN-30" x="16430" y="0"></use></g></svg>